<svg width="1192" height="289" viewBox="0 0 1192 289" fill="none" xmlns="http://www.w3.org/2000/svg">
<path d="M74.1433 275.084H78.2833V277.082H71.6233V264.518H74.1433V275.084ZM79.237 272.06C79.237 271.052 79.435 270.158 79.831 269.378C80.239 268.598 80.785 267.998 81.469 267.578C82.165 267.158 82.939 266.948 83.791 266.948C84.535 266.948 85.183 267.098 85.735 267.398C86.299 267.698 86.749 268.076 87.085 268.532V267.11H89.623V277.082H87.085V275.624C86.761 276.092 86.311 276.482 85.735 276.794C85.171 277.094 84.517 277.244 83.773 277.244C82.933 277.244 82.165 277.028 81.469 276.596C80.785 276.164 80.239 275.558 79.831 274.778C79.435 273.986 79.237 273.08 79.237 272.06ZM87.085 272.096C87.085 271.484 86.965 270.962 86.725 270.53C86.485 270.086 86.161 269.75 85.753 269.522C85.345 269.282 84.907 269.162 84.439 269.162C83.971 269.162 83.539 269.276 83.143 269.504C82.747 269.732 82.423 270.068 82.171 270.512C81.931 270.944 81.811 271.46 81.811 272.06C81.811 272.66 81.931 273.188 82.171 273.644C82.423 274.088 82.747 274.43 83.143 274.67C83.551 274.91 83.983 275.03 84.439 275.03C84.907 275.03 85.345 274.916 85.753 274.688C86.161 274.448 86.485 274.112 86.725 273.68C86.965 273.236 87.085 272.708 87.085 272.096ZM94.6042 268.568C94.9282 268.088 95.3722 267.698 95.9362 267.398C96.5122 267.098 97.1662 266.948 97.8982 266.948C98.7502 266.948 99.5182 267.158 100.202 267.578C100.898 267.998 101.444 268.598 101.84 269.378C102.248 270.146 102.452 271.04 102.452 272.06C102.452 273.08 102.248 273.986 101.84 274.778C101.444 275.558 100.898 276.164 100.202 276.596C99.5182 277.028 98.7502 277.244 97.8982 277.244C97.1542 277.244 96.5002 277.1 95.9362 276.812C95.3842 276.512 94.9402 276.128 94.6042 275.66V277.082H92.0842V263.762H94.6042V268.568ZM99.8782 272.06C99.8782 271.46 99.7522 270.944 99.5002 270.512C99.2602 270.068 98.9362 269.732 98.5282 269.504C98.1322 269.276 97.7002 269.162 97.2322 269.162C96.7762 269.162 96.3442 269.282 95.9362 269.522C95.5402 269.75 95.2162 270.086 94.9642 270.53C94.7242 270.974 94.6042 271.496 94.6042 272.096C94.6042 272.696 94.7242 273.218 94.9642 273.662C95.2162 274.106 95.5402 274.448 95.9362 274.688C96.3442 274.916 96.7762 275.03 97.2322 275.03C97.7002 275.03 98.1322 274.91 98.5282 274.67C98.9362 274.43 99.2602 274.088 99.5002 273.644C99.7522 273.2 99.8782 272.672 99.8782 272.06ZM113.553 271.88C113.553 272.24 113.529 272.564 113.481 272.852H106.191C106.251 273.572 106.503 274.136 106.947 274.544C107.391 274.952 107.937 275.156 108.585 275.156C109.521 275.156 110.187 274.754 110.583 273.95H113.301C113.013 274.91 112.461 275.702 111.645 276.326C110.829 276.938 109.827 277.244 108.639 277.244C107.679 277.244 106.815 277.034 106.047 276.614C105.291 276.182 104.697 275.576 104.265 274.796C103.845 274.016 103.635 273.116 103.635 272.096C103.635 271.064 103.845 270.158 104.265 269.378C104.685 268.598 105.273 267.998 106.029 267.578C106.785 267.158 107.655 266.948 108.639 266.948C109.587 266.948 110.433 267.152 111.177 267.56C111.933 267.968 112.515 268.55 112.923 269.306C113.343 270.05 113.553 270.908 113.553 271.88ZM110.943 271.16C110.931 270.512 110.697 269.996 110.241 269.612C109.785 269.216 109.227 269.018 108.567 269.018C107.943 269.018 107.415 269.21 106.983 269.594C106.563 269.966 106.305 270.488 106.209 271.16H110.943ZM117.913 263.762V277.082H115.393V263.762H117.913ZM121.681 265.922C121.237 265.922 120.865 265.784 120.565 265.508C120.277 265.22 120.133 264.866 120.133 264.446C120.133 264.026 120.277 263.678 120.565 263.402C120.865 263.114 121.237 262.97 121.681 262.97C122.125 262.97 122.491 263.114 122.779 263.402C123.079 263.678 123.229 264.026 123.229 264.446C123.229 264.866 123.079 265.22 122.779 265.508C122.491 265.784 122.125 265.922 121.681 265.922ZM122.923 267.11V277.082H120.403V267.11H122.923ZM130.938 266.966C132.126 266.966 133.086 267.344 133.818 268.1C134.55 268.844 134.916 269.888 134.916 271.232V277.082H132.396V271.574C132.396 270.782 132.198 270.176 131.802 269.756C131.406 269.324 130.866 269.108 130.182 269.108C129.486 269.108 128.934 269.324 128.526 269.756C128.13 270.176 127.932 270.782 127.932 271.574V277.082H125.412V267.11H127.932V268.352C128.268 267.92 128.694 267.584 129.21 267.344C129.738 267.092 130.314 266.966 130.938 266.966ZM141.219 266.948C141.963 266.948 142.617 267.098 143.181 267.398C143.745 267.686 144.189 268.064 144.513 268.532V267.11H147.051V277.154C147.051 278.078 146.865 278.9 146.493 279.62C146.121 280.352 145.563 280.928 144.819 281.348C144.075 281.78 143.175 281.996 142.119 281.996C140.703 281.996 139.539 281.666 138.627 281.006C137.727 280.346 137.217 279.446 137.097 278.306H139.599C139.731 278.762 140.013 279.122 140.445 279.386C140.889 279.662 141.423 279.8 142.047 279.8C142.779 279.8 143.373 279.578 143.829 279.134C144.285 278.702 144.513 278.042 144.513 277.154V275.606C144.189 276.074 143.739 276.464 143.163 276.776C142.599 277.088 141.951 277.244 141.219 277.244C140.379 277.244 139.611 277.028 138.915 276.596C138.219 276.164 137.667 275.558 137.259 274.778C136.863 273.986 136.665 273.08 136.665 272.06C136.665 271.052 136.863 270.158 137.259 269.378C137.667 268.598 138.213 267.998 138.897 267.578C139.593 267.158 140.367 266.948 141.219 266.948ZM144.513 272.096C144.513 271.484 144.393 270.962 144.153 270.53C143.913 270.086 143.589 269.75 143.181 269.522C142.773 269.282 142.335 269.162 141.867 269.162C141.399 269.162 140.967 269.276 140.571 269.504C140.175 269.732 139.851 270.068 139.599 270.512C139.359 270.944 139.239 271.46 139.239 272.06C139.239 272.66 139.359 273.188 139.599 273.644C139.851 274.088 140.175 274.43 140.571 274.67C140.979 274.91 141.411 275.03 141.867 275.03C142.335 275.03 142.773 274.916 143.181 274.688C143.589 274.448 143.913 274.112 144.153 273.68C144.393 273.236 144.513 272.708 144.513 272.096ZM161.559 264.518V266.552H156.321V269.774H160.335V271.772H156.321V277.082H153.801V264.518H161.559ZM172.76 267.11V277.082H170.222V275.822C169.898 276.254 169.472 276.596 168.944 276.848C168.428 277.088 167.864 277.208 167.252 277.208C166.472 277.208 165.782 277.046 165.182 276.722C164.582 276.386 164.108 275.9 163.76 275.264C163.424 274.616 163.256 273.848 163.256 272.96V267.11H165.776V272.6C165.776 273.392 165.974 274.004 166.37 274.436C166.766 274.856 167.306 275.066 167.99 275.066C168.686 275.066 169.232 274.856 169.628 274.436C170.024 274.004 170.222 273.392 170.222 272.6V267.11H172.76ZM180.772 266.966C181.96 266.966 182.92 267.344 183.652 268.1C184.384 268.844 184.75 269.888 184.75 271.232V277.082H182.23V271.574C182.23 270.782 182.032 270.176 181.636 269.756C181.24 269.324 180.7 269.108 180.016 269.108C179.32 269.108 178.768 269.324 178.36 269.756C177.964 270.176 177.766 270.782 177.766 271.574V277.082H175.246V267.11H177.766V268.352C178.102 267.92 178.528 267.584 179.044 267.344C179.572 267.092 180.148 266.966 180.772 266.966ZM186.499 272.096C186.499 271.064 186.709 270.164 187.129 269.396C187.549 268.616 188.131 268.016 188.875 267.596C189.619 267.164 190.471 266.948 191.431 266.948C192.667 266.948 193.687 267.26 194.491 267.884C195.307 268.496 195.853 269.36 196.129 270.476H193.411C193.267 270.044 193.021 269.708 192.673 269.468C192.337 269.216 191.917 269.09 191.413 269.09C190.693 269.09 190.123 269.354 189.703 269.882C189.283 270.398 189.073 271.136 189.073 272.096C189.073 273.044 189.283 273.782 189.703 274.31C190.123 274.826 190.693 275.084 191.413 275.084C192.433 275.084 193.099 274.628 193.411 273.716H196.129C195.853 274.796 195.307 275.654 194.491 276.29C193.675 276.926 192.655 277.244 191.431 277.244C190.471 277.244 189.619 277.034 188.875 276.614C188.131 276.182 187.549 275.582 187.129 274.814C186.709 274.034 186.499 273.128 186.499 272.096ZM200.909 269.18V274.004C200.909 274.34 200.987 274.586 201.143 274.742C201.311 274.886 201.587 274.958 201.971 274.958H203.141V277.082H201.557C199.433 277.082 198.371 276.05 198.371 273.986V269.18H197.183V267.11H198.371V264.644H200.909V267.11H203.141V269.18H200.909ZM206.231 265.922C205.787 265.922 205.415 265.784 205.115 265.508C204.827 265.22 204.683 264.866 204.683 264.446C204.683 264.026 204.827 263.678 205.115 263.402C205.415 263.114 205.787 262.97 206.231 262.97C206.675 262.97 207.041 263.114 207.329 263.402C207.629 263.678 207.779 264.026 207.779 264.446C207.779 264.866 207.629 265.22 207.329 265.508C207.041 265.784 206.675 265.922 206.231 265.922ZM207.473 267.11V277.082H204.953V267.11H207.473ZM214.391 277.244C213.431 277.244 212.567 277.034 211.799 276.614C211.031 276.182 210.425 275.576 209.981 274.796C209.549 274.016 209.333 273.116 209.333 272.096C209.333 271.076 209.555 270.176 209.999 269.396C210.455 268.616 211.073 268.016 211.853 267.596C212.633 267.164 213.503 266.948 214.463 266.948C215.423 266.948 216.293 267.164 217.073 267.596C217.853 268.016 218.465 268.616 218.909 269.396C219.365 270.176 219.593 271.076 219.593 272.096C219.593 273.116 219.359 274.016 218.891 274.796C218.435 275.576 217.811 276.182 217.019 276.614C216.239 277.034 215.363 277.244 214.391 277.244ZM214.391 275.048C214.847 275.048 215.273 274.94 215.669 274.724C216.077 274.496 216.401 274.16 216.641 273.716C216.881 273.272 217.001 272.732 217.001 272.096C217.001 271.148 216.749 270.422 216.245 269.918C215.753 269.402 215.147 269.144 214.427 269.144C213.707 269.144 213.101 269.402 212.609 269.918C212.129 270.422 211.889 271.148 211.889 272.096C211.889 273.044 212.123 273.776 212.591 274.292C213.071 274.796 213.671 275.048 214.391 275.048ZM226.968 266.966C228.156 266.966 229.116 267.344 229.848 268.1C230.58 268.844 230.946 269.888 230.946 271.232V277.082H228.426V271.574C228.426 270.782 228.228 270.176 227.832 269.756C227.436 269.324 226.896 269.108 226.212 269.108C225.516 269.108 224.964 269.324 224.556 269.756C224.16 270.176 223.962 270.782 223.962 271.574V277.082H221.442V267.11H223.962V268.352C224.298 267.92 224.724 267.584 225.24 267.344C225.768 267.092 226.344 266.966 226.968 266.966ZM237.158 277.244C236.342 277.244 235.61 277.1 234.962 276.812C234.314 276.512 233.798 276.11 233.414 275.606C233.042 275.102 232.838 274.544 232.802 273.932H235.34C235.388 274.316 235.574 274.634 235.898 274.886C236.234 275.138 236.648 275.264 237.14 275.264C237.62 275.264 237.992 275.168 238.256 274.976C238.532 274.784 238.67 274.538 238.67 274.238C238.67 273.914 238.502 273.674 238.166 273.518C237.842 273.35 237.32 273.17 236.6 272.978C235.856 272.798 235.244 272.612 234.764 272.42C234.296 272.228 233.888 271.934 233.54 271.538C233.204 271.142 233.036 270.608 233.036 269.936C233.036 269.384 233.192 268.88 233.504 268.424C233.828 267.968 234.284 267.608 234.872 267.344C235.472 267.08 236.174 266.948 236.978 266.948C238.166 266.948 239.114 267.248 239.822 267.848C240.53 268.436 240.92 269.234 240.992 270.242H238.58C238.544 269.846 238.376 269.534 238.076 269.306C237.788 269.066 237.398 268.946 236.906 268.946C236.45 268.946 236.096 269.03 235.844 269.198C235.604 269.366 235.484 269.6 235.484 269.9C235.484 270.236 235.652 270.494 235.988 270.674C236.324 270.842 236.846 271.016 237.554 271.196C238.274 271.376 238.868 271.562 239.336 271.754C239.804 271.946 240.206 272.246 240.542 272.654C240.89 273.05 241.07 273.578 241.082 274.238C241.082 274.814 240.92 275.33 240.596 275.786C240.284 276.242 239.828 276.602 239.228 276.866C238.64 277.118 237.95 277.244 237.158 277.244Z" fill="#1B3072"/>
<path d="M525.813 275.002H529.953V277H523.293V264.436H525.813V275.002ZM530.907 271.978C530.907 270.97 531.105 270.076 531.501 269.296C531.909 268.516 532.455 267.916 533.139 267.496C533.835 267.076 534.609 266.866 535.461 266.866C536.205 266.866 536.853 267.016 537.405 267.316C537.969 267.616 538.419 267.994 538.755 268.45V267.028H541.293V277H538.755V275.542C538.431 276.01 537.981 276.4 537.405 276.712C536.841 277.012 536.187 277.162 535.443 277.162C534.603 277.162 533.835 276.946 533.139 276.514C532.455 276.082 531.909 275.476 531.501 274.696C531.105 273.904 530.907 272.998 530.907 271.978ZM538.755 272.014C538.755 271.402 538.635 270.88 538.395 270.448C538.155 270.004 537.831 269.668 537.423 269.44C537.015 269.2 536.577 269.08 536.109 269.08C535.641 269.08 535.209 269.194 534.813 269.422C534.417 269.65 534.093 269.986 533.841 270.43C533.601 270.862 533.481 271.378 533.481 271.978C533.481 272.578 533.601 273.106 533.841 273.562C534.093 274.006 534.417 274.348 534.813 274.588C535.221 274.828 535.653 274.948 536.109 274.948C536.577 274.948 537.015 274.834 537.423 274.606C537.831 274.366 538.155 274.03 538.395 273.598C538.635 273.154 538.755 272.626 538.755 272.014ZM546.274 268.486C546.598 268.006 547.042 267.616 547.606 267.316C548.182 267.016 548.836 266.866 549.568 266.866C550.42 266.866 551.188 267.076 551.872 267.496C552.568 267.916 553.114 268.516 553.51 269.296C553.918 270.064 554.122 270.958 554.122 271.978C554.122 272.998 553.918 273.904 553.51 274.696C553.114 275.476 552.568 276.082 551.872 276.514C551.188 276.946 550.42 277.162 549.568 277.162C548.824 277.162 548.17 277.018 547.606 276.73C547.054 276.43 546.61 276.046 546.274 275.578V277H543.754V263.68H546.274V268.486ZM551.548 271.978C551.548 271.378 551.422 270.862 551.17 270.43C550.93 269.986 550.606 269.65 550.198 269.422C549.802 269.194 549.37 269.08 548.902 269.08C548.446 269.08 548.014 269.2 547.606 269.44C547.21 269.668 546.886 270.004 546.634 270.448C546.394 270.892 546.274 271.414 546.274 272.014C546.274 272.614 546.394 273.136 546.634 273.58C546.886 274.024 547.21 274.366 547.606 274.606C548.014 274.834 548.446 274.948 548.902 274.948C549.37 274.948 549.802 274.828 550.198 274.588C550.606 274.348 550.93 274.006 551.17 273.562C551.422 273.118 551.548 272.59 551.548 271.978ZM565.223 271.798C565.223 272.158 565.199 272.482 565.151 272.77H557.861C557.921 273.49 558.173 274.054 558.617 274.462C559.061 274.87 559.607 275.074 560.255 275.074C561.191 275.074 561.857 274.672 562.253 273.868H564.971C564.683 274.828 564.131 275.62 563.315 276.244C562.499 276.856 561.497 277.162 560.309 277.162C559.349 277.162 558.485 276.952 557.717 276.532C556.961 276.1 556.367 275.494 555.935 274.714C555.515 273.934 555.305 273.034 555.305 272.014C555.305 270.982 555.515 270.076 555.935 269.296C556.355 268.516 556.943 267.916 557.699 267.496C558.455 267.076 559.325 266.866 560.309 266.866C561.257 266.866 562.103 267.07 562.847 267.478C563.603 267.886 564.185 268.468 564.593 269.224C565.013 269.968 565.223 270.826 565.223 271.798ZM562.613 271.078C562.601 270.43 562.367 269.914 561.911 269.53C561.455 269.134 560.897 268.936 560.237 268.936C559.613 268.936 559.085 269.128 558.653 269.512C558.233 269.884 557.975 270.406 557.879 271.078H562.613ZM569.583 263.68V277H567.063V263.68H569.583ZM590.06 264.436V277H587.54V268.828L584.174 277H582.266L578.882 268.828V277H576.362V264.436H579.224L583.22 273.778L587.216 264.436H590.06ZM596.979 277.162C596.019 277.162 595.155 276.952 594.387 276.532C593.619 276.1 593.013 275.494 592.569 274.714C592.137 273.934 591.921 273.034 591.921 272.014C591.921 270.994 592.143 270.094 592.587 269.314C593.043 268.534 593.661 267.934 594.441 267.514C595.221 267.082 596.091 266.866 597.051 266.866C598.011 266.866 598.881 267.082 599.661 267.514C600.441 267.934 601.053 268.534 601.497 269.314C601.953 270.094 602.181 270.994 602.181 272.014C602.181 273.034 601.947 273.934 601.479 274.714C601.023 275.494 600.399 276.1 599.607 276.532C598.827 276.952 597.951 277.162 596.979 277.162ZM596.979 274.966C597.435 274.966 597.861 274.858 598.257 274.642C598.665 274.414 598.989 274.078 599.229 273.634C599.469 273.19 599.589 272.65 599.589 272.014C599.589 271.066 599.337 270.34 598.833 269.836C598.341 269.32 597.735 269.062 597.015 269.062C596.295 269.062 595.689 269.32 595.197 269.836C594.717 270.34 594.477 271.066 594.477 272.014C594.477 272.962 594.711 273.694 595.179 274.21C595.659 274.714 596.259 274.966 596.979 274.966ZM603.382 271.978C603.382 270.97 603.58 270.076 603.976 269.296C604.384 268.516 604.936 267.916 605.632 267.496C606.328 267.076 607.102 266.866 607.954 266.866C608.602 266.866 609.22 267.01 609.808 267.298C610.396 267.574 610.864 267.946 611.212 268.414V263.68H613.768V277H611.212V275.524C610.9 276.016 610.462 276.412 609.898 276.712C609.334 277.012 608.68 277.162 607.936 277.162C607.096 277.162 606.328 276.946 605.632 276.514C604.936 276.082 604.384 275.476 603.976 274.696C603.58 273.904 603.382 272.998 603.382 271.978ZM611.23 272.014C611.23 271.402 611.11 270.88 610.87 270.448C610.63 270.004 610.306 269.668 609.898 269.44C609.49 269.2 609.052 269.08 608.584 269.08C608.116 269.08 607.684 269.194 607.288 269.422C606.892 269.65 606.568 269.986 606.316 270.43C606.076 270.862 605.956 271.378 605.956 271.978C605.956 272.578 606.076 273.106 606.316 273.562C606.568 274.006 606.892 274.348 607.288 274.588C607.696 274.828 608.128 274.948 608.584 274.948C609.052 274.948 609.49 274.834 609.898 274.606C610.306 274.366 610.63 274.03 610.87 273.598C611.11 273.154 611.23 272.626 611.23 272.014ZM625.499 271.798C625.499 272.158 625.475 272.482 625.427 272.77H618.137C618.197 273.49 618.449 274.054 618.893 274.462C619.337 274.87 619.883 275.074 620.531 275.074C621.467 275.074 622.133 274.672 622.529 273.868H625.247C624.959 274.828 624.407 275.62 623.591 276.244C622.775 276.856 621.773 277.162 620.585 277.162C619.625 277.162 618.761 276.952 617.993 276.532C617.237 276.1 616.643 275.494 616.211 274.714C615.791 273.934 615.581 273.034 615.581 272.014C615.581 270.982 615.791 270.076 616.211 269.296C616.631 268.516 617.219 267.916 617.975 267.496C618.731 267.076 619.601 266.866 620.585 266.866C621.533 266.866 622.379 267.07 623.123 267.478C623.879 267.886 624.461 268.468 624.869 269.224C625.289 269.968 625.499 270.826 625.499 271.798ZM622.889 271.078C622.877 270.43 622.643 269.914 622.187 269.53C621.731 269.134 621.173 268.936 620.513 268.936C619.889 268.936 619.361 269.128 618.929 269.512C618.509 269.884 618.251 270.406 618.155 271.078H622.889ZM629.858 263.68V277H627.338V263.68H629.858Z" fill="#1B3072"/>
<path d="M1004.35 264.354V276.918H1001.83V268.746L998.46 276.918H996.552L993.168 268.746V276.918H990.648V264.354H993.51L997.506 273.696L1001.5 264.354H1004.35ZM1009.36 274.92H1013.5V276.918H1006.84V264.354H1009.36V274.92ZM1033.09 264.354V276.918H1030.57V268.746L1027.2 276.918H1025.29L1021.91 268.746V276.918H1019.39V264.354H1022.25L1026.25 273.696L1030.24 264.354H1033.09ZM1040.01 277.08C1039.05 277.08 1038.18 276.87 1037.41 276.45C1036.65 276.018 1036.04 275.412 1035.6 274.632C1035.16 273.852 1034.95 272.952 1034.95 271.932C1034.95 270.912 1035.17 270.012 1035.61 269.232C1036.07 268.452 1036.69 267.852 1037.47 267.432C1038.25 267 1039.12 266.784 1040.08 266.784C1041.04 266.784 1041.91 267 1042.69 267.432C1043.47 267.852 1044.08 268.452 1044.52 269.232C1044.98 270.012 1045.21 270.912 1045.21 271.932C1045.21 272.952 1044.97 273.852 1044.51 274.632C1044.05 275.412 1043.43 276.018 1042.63 276.45C1041.85 276.87 1040.98 277.08 1040.01 277.08ZM1040.01 274.884C1040.46 274.884 1040.89 274.776 1041.28 274.56C1041.69 274.332 1042.02 273.996 1042.26 273.552C1042.5 273.108 1042.62 272.568 1042.62 271.932C1042.62 270.984 1042.36 270.258 1041.86 269.754C1041.37 269.238 1040.76 268.98 1040.04 268.98C1039.32 268.98 1038.72 269.238 1038.22 269.754C1037.74 270.258 1037.5 270.984 1037.5 271.932C1037.5 272.88 1037.74 273.612 1038.21 274.128C1038.69 274.632 1039.29 274.884 1040.01 274.884ZM1046.41 271.896C1046.41 270.888 1046.61 269.994 1047 269.214C1047.41 268.434 1047.96 267.834 1048.66 267.414C1049.35 266.994 1050.13 266.784 1050.98 266.784C1051.63 266.784 1052.25 266.928 1052.83 267.216C1053.42 267.492 1053.89 267.864 1054.24 268.332V263.598H1056.79V276.918H1054.24V275.442C1053.93 275.934 1053.49 276.33 1052.92 276.63C1052.36 276.93 1051.71 277.08 1050.96 277.08C1050.12 277.08 1049.35 276.864 1048.66 276.432C1047.96 276 1047.41 275.394 1047 274.614C1046.61 273.822 1046.41 272.916 1046.41 271.896ZM1054.26 271.932C1054.26 271.32 1054.14 270.798 1053.9 270.366C1053.66 269.922 1053.33 269.586 1052.92 269.358C1052.52 269.118 1052.08 268.998 1051.61 268.998C1051.14 268.998 1050.71 269.112 1050.31 269.34C1049.92 269.568 1049.59 269.904 1049.34 270.348C1049.1 270.78 1048.98 271.296 1048.98 271.896C1048.98 272.496 1049.1 273.024 1049.34 273.48C1049.59 273.924 1049.92 274.266 1050.31 274.506C1050.72 274.746 1051.15 274.866 1051.61 274.866C1052.08 274.866 1052.52 274.752 1052.92 274.524C1053.33 274.284 1053.66 273.948 1053.9 273.516C1054.14 273.072 1054.26 272.544 1054.26 271.932ZM1068.53 271.716C1068.53 272.076 1068.5 272.4 1068.45 272.688H1061.16C1061.22 273.408 1061.48 273.972 1061.92 274.38C1062.36 274.788 1062.91 274.992 1063.56 274.992C1064.49 274.992 1065.16 274.59 1065.56 273.786H1068.27C1067.99 274.746 1067.43 275.538 1066.62 276.162C1065.8 276.774 1064.8 277.08 1063.61 277.08C1062.65 277.08 1061.79 276.87 1061.02 276.45C1060.26 276.018 1059.67 275.412 1059.24 274.632C1058.82 273.852 1058.61 272.952 1058.61 271.932C1058.61 270.9 1058.82 269.994 1059.24 269.214C1059.66 268.434 1060.25 267.834 1061 267.414C1061.76 266.994 1062.63 266.784 1063.61 266.784C1064.56 266.784 1065.41 266.988 1066.15 267.396C1066.91 267.804 1067.49 268.386 1067.9 269.142C1068.32 269.886 1068.53 270.744 1068.53 271.716ZM1065.92 270.996C1065.9 270.348 1065.67 269.832 1065.21 269.448C1064.76 269.052 1064.2 268.854 1063.54 268.854C1062.92 268.854 1062.39 269.046 1061.96 269.43C1061.54 269.802 1061.28 270.324 1061.18 270.996H1065.92ZM1072.89 263.598V276.918H1070.37V263.598H1072.89Z" fill="#1B3072"/>
<ellipse cx="245.515" cy="59.6282" rx="37.5101" ry="47.9256" transform="rotate(127.454 245.515 59.6282)" fill="#67BEFF"/>
<ellipse cx="206.227" cy="47.2635" rx="23.6714" ry="30.492" transform="rotate(90 206.227 47.2635)" fill="#67BEFF"/>
<g style="mix-blend-mode:multiply" opacity="0.8">
<path fill-rule="evenodd" clip-rule="evenodd" d="M206.777 70.9911C199.306 57.1101 199.009 41.5863 207.47 30.5426C209.301 28.1514 211.443 26.1018 213.83 24.3947C226.99 27.018 236.715 36.2891 236.715 47.3236C236.715 60.2532 223.362 70.7617 206.777 70.9911Z" fill="#2474DD"/>
</g>
<ellipse cx="180.946" cy="192.101" rx="32.8993" ry="73.4215" transform="rotate(90 180.946 192.101)" fill="#FFB78A"/>
<g style="mix-blend-mode:multiply">
<path d="M202.438 171.64C191.603 146.054 191.719 121.545 202.695 116.896C213.672 112.248 231.353 129.222 242.187 154.808C253.022 180.393 252.906 204.903 241.93 209.551C230.953 214.199 213.272 197.225 202.438 171.64Z" fill="#67BEFF"/>
</g>
<circle cx="210.235" cy="148.77" r="8.02421" fill="#2474DD"/>
<path fill-rule="evenodd" clip-rule="evenodd" d="M198.199 160.004C199.349 163.825 200.758 167.741 202.427 171.682C213.261 197.267 230.942 214.241 241.919 209.593C249.08 206.56 251.618 195.075 249.509 180.352C241.028 170.29 221.855 162.58 198.199 160.004Z" fill="#A2DDFF"/>
<circle cx="66.5984" cy="38.0367" r="8.02421" fill="#E7E7E7"/>
<circle cx="38.5164" cy="41.2464" r="8.02421" fill="#E7E7E7"/>
<circle cx="50.5516" cy="59.7021" r="8.02421" fill="#E7E7E7"/>
<circle cx="62.5867" cy="81.3672" r="8.02421" fill="#E7E7E7"/>
<circle cx="38.5164" cy="89.3918" r="8.02421" fill="#E7E7E7"/>
<circle cx="14.4422" cy="85.3797" r="8.02421" fill="#E7E7E7"/>
<circle cx="14.4422" cy="57.2946" r="8.02421" fill="#E7E7E7"/>
<circle cx="14.4422" cy="120.686" r="8.02421" fill="#E7E7E7"/>
<circle cx="27.282" cy="151.98" r="8.02421" fill="#E7E7E7"/>
<circle cx="22.4695" cy="200.928" r="8.02421" fill="#E7E7E7"/>
<circle cx="54.5633" cy="178.46" r="8.02421" fill="#E7E7E7"/>
<circle cx="50.5516" cy="156.795" r="8.02421" fill="#E7E7E7"/>
<circle cx="58.575" cy="132.722" r="8.02421" fill="#E7E7E7"/>
<circle cx="54.5633" cy="108.65" r="8.02421" fill="#E7E7E7"/>
<circle cx="94.6844" cy="89.3918" r="8.02421" fill="#E7E7E7"/>
<circle cx="119.559" cy="93.4035" r="8.02421" fill="#E7E7E7"/>
<circle cx="99.5008" cy="112.662" r="8.02421" fill="#E7E7E7"/>
<circle cx="110.735" cy="132.722" r="8.02421" fill="#E7E7E7"/>
<circle cx="99.5008" cy="156.795" r="8.02421" fill="#E7E7E7"/>
<circle cx="77.0359" cy="168.029" r="8.02421" fill="#E7E7E7"/>
<circle cx="94.6844" cy="184.077" r="8.02421" fill="#E7E7E7"/>
<circle cx="99.5008" cy="208.952" r="8.02421" fill="#E7E7E7"/>
<circle cx="126.782" cy="184.077" r="8.02421" fill="#E6A57C"/>
<circle cx="162.891" cy="184.077" r="8.02421" fill="#E6A57C"/>
<circle cx="190.177" cy="184.077" r="8.02421" fill="#E6A57C"/>
<circle cx="230.298" cy="178.46" r="8.02421" fill="#67BEFF"/>
<circle cx="230.298" cy="156.794" r="8.02421" fill="#2474DD"/>
<circle cx="244.743" cy="135.931" r="8.02421" fill="#E7E7E7"/>
<circle cx="258.38" cy="120.685" r="8.02421" fill="#E7E7E7"/>
<circle cx="230.298" cy="112.661" r="8.02421" fill="#E7E7E7"/>
<circle cx="182.149" cy="97.4152" r="8.02421" fill="#E7E7E7"/>
<circle cx="190.177" cy="76.5524" r="8.02421" fill="#E7E7E7"/>
<circle cx="170.114" cy="62.1089" r="8.02421" fill="#E7E7E7"/>
<circle cx="150.052" cy="69.3302" r="8.02421" fill="#E7E7E7"/>
<circle cx="146.044" cy="87.7863" r="8.02421" fill="#E7E7E7"/>
<circle cx="165.298" cy="115.069" r="8.02421" fill="#E7E7E7"/>
<circle cx="181.345" cy="136.733" r="8.02421" fill="#E7E7E7"/>
<circle cx="162.091" cy="149.572" r="8.02421" fill="#E7E7E7"/>
<circle cx="278.438" cy="112.662" r="8.02421" fill="#E7E7E7"/>
<circle cx="250.356" cy="89.3909" r="8.02421" fill="#2474DD"/>
<circle cx="274.427" cy="83.7745" r="8.02421" fill="#2474DD"/>
<circle cx="274.427" cy="49.2702" r="8.02421" fill="#2474DD"/>
<circle cx="242.333" cy="59.7017" r="8.02421" fill="#2474DD"/>
<circle cx="306.524" cy="46.0607" r="8.02421" fill="#E7E7E7"/>
<circle cx="298.501" cy="70.1332" r="8.02421" fill="#E7E7E7"/>
<circle cx="301.712" cy="96.6131" r="8.02421" fill="#E7E7E7"/>
<circle cx="315.348" cy="120.686" r="8.02421" fill="#E7E7E7"/>
<circle cx="298.501" cy="140.746" r="8.02421" fill="#E7E7E7"/>
<circle cx="266.407" cy="144.758" r="8.02421" fill="#E7E7E7"/>
<circle cx="256.778" cy="168.831" r="8.02421" fill="#E7E7E7"/>
<circle cx="285.661" cy="164.819" r="8.02421" fill="#E7E7E7"/>
<circle cx="309.731" cy="184.879" r="8.02421" fill="#E7E7E7"/>
<circle cx="286.462" cy="205.743" r="8.02421" fill="#E7E7E7"/>
<circle cx="263.196" cy="192.903" r="8.02421" fill="#E7E7E7"/>
<circle cx="206.223" cy="128.71" r="8.02421" fill="#2474DD"/>
<circle cx="202.212" cy="108.649" r="8.02421" fill="#E7E7E7"/>
<circle cx="210.235" cy="89.3909" r="8.02421" fill="#E7E7E7"/>
<circle cx="212.641" cy="59.7017" r="8.02421" fill="#1B3072"/>
<circle cx="222.27" cy="38.0362" r="8.02421" fill="#1B3072"/>
<circle cx="186.161" cy="46.0603" r="8.02421" fill="#2474DD"/>
<circle cx="154.868" cy="38.0362" r="8.02421" fill="#E7E7E7"/>
<circle cx="130.794" cy="46.0607" r="8.02421" fill="#E7E7E7"/>
<circle cx="129.989" cy="67.7261" r="8.02421" fill="#E7E7E7"/>
<circle cx="107.524" cy="41.2464" r="8.02421" fill="#E7E7E7"/>
<circle cx="138.817" cy="115.069" r="8.02421" fill="#E7E7E7"/>
<circle cx="138.817" cy="136.733" r="8.02421" fill="#E7E7E7"/>
<circle cx="121.966" cy="152.783" r="8.02421" fill="#E7E7E7"/>
<circle cx="146.841" cy="208.951" r="8.02421" fill="#E6A57C"/>
<circle cx="202.212" cy="208.951" r="8.02421" fill="#E6A57C"/>
<circle cx="238.321" cy="200.125" r="8.02421" fill="#67BEFF"/>
<circle cx="62.5867" cy="205.743" r="8.02421" fill="#E7E7E7"/>
<g style="mix-blend-mode:multiply">
<ellipse cx="19.2581" cy="157.196" rx="19.2581" ry="60.5828" fill="#FFB78A"/>
</g>
<g style="mix-blend-mode:multiply">
<ellipse cx="106.722" cy="103.835" rx="23.2702" ry="40.121" transform="rotate(-180 106.722 103.835)" fill="#FFB78A"/>
</g>
<circle cx="489.477" cy="38.0367" r="8.02421" fill="#E7E7E7"/>
<circle cx="461.395" cy="41.2461" r="8.02421" fill="#E7E7E7"/>
<circle cx="473.43" cy="59.7019" r="8.02421" fill="#E7E7E7"/>
<circle cx="485.466" cy="81.3673" r="8.02421" fill="#E7E7E7"/>
<circle cx="461.395" cy="89.3919" r="8.02421" fill="#E7E7E7"/>
<circle cx="437.321" cy="85.3794" r="8.02421" fill="#E7E7E7"/>
<circle cx="437.321" cy="57.295" r="8.02421" fill="#E7E7E7"/>
<circle cx="437.321" cy="120.686" r="8.02421" fill="#FFB78A"/>
<circle cx="450.157" cy="151.98" r="8.02421" fill="#FFB78A"/>
<circle cx="445.345" cy="200.928" r="8.02421" fill="#FFB78A"/>
<circle cx="477.442" cy="178.46" r="8.02421" fill="#E7E7E7"/>
<circle cx="473.43" cy="156.795" r="8.02421" fill="#E7E7E7"/>
<circle cx="481.454" cy="132.722" r="8.02421" fill="#E7E7E7"/>
<circle cx="477.442" cy="108.65" r="8.02421" fill="#E7E7E7"/>
<circle cx="517.563" cy="89.3919" r="8.02421" fill="#FFB78A"/>
<circle cx="544.845" cy="93.4038" r="8.02421" fill="#FFB78A"/>
<circle cx="522.376" cy="112.662" r="8.02421" fill="#FFB78A"/>
<circle cx="533.61" cy="132.722" r="8.02421" fill="#FFB78A"/>
<circle cx="522.376" cy="156.795" r="8.02421" fill="#E7E7E7"/>
<circle cx="499.911" cy="168.029" r="8.02421" fill="#E7E7E7"/>
<circle cx="517.563" cy="184.077" r="8.02421" fill="#E7E7E7"/>
<circle cx="522.376" cy="208.952" r="8.02421" fill="#E7E7E7"/>
<circle cx="549.657" cy="184.077" r="8.02421" fill="#FFB78A"/>
<circle cx="585.766" cy="184.077" r="8.02421" fill="#FFB78A"/>
<circle cx="613.052" cy="184.077" r="8.02421" fill="#FFB78A"/>
<circle cx="653.173" cy="178.46" r="8.02421" fill="#67BEFF"/>
<circle cx="653.173" cy="156.795" r="8.02421" fill="#2474DD"/>
<circle cx="664.407" cy="140.746" r="8.02421" fill="#E7E7E7"/>
<circle cx="681.255" cy="120.686" r="8.02421" fill="#E7E7E7"/>
<circle cx="653.173" cy="112.662" r="8.02421" fill="#E7E7E7"/>
<circle cx="605.024" cy="97.4158" r="8.02421" fill="#E7E7E7"/>
<circle cx="613.052" cy="76.553" r="8.02421" fill="#E7E7E7"/>
<circle cx="592.993" cy="62.1095" r="8.02421" fill="#E7E7E7"/>
<circle cx="572.927" cy="69.3312" r="8.02421" fill="#E7E7E7"/>
<circle cx="568.919" cy="87.7869" r="8.02421" fill="#E7E7E7"/>
<circle cx="588.18" cy="115.069" r="8.02421" fill="#E7E7E7"/>
<circle cx="609.04" cy="136.735" r="8.02421" fill="#E7E7E7"/>
<circle cx="584.966" cy="149.573" r="8.02421" fill="#E7E7E7"/>
<circle cx="701.317" cy="112.662" r="8.02421" fill="#E7E7E7"/>
<circle cx="673.231" cy="89.3919" r="8.02421" fill="#2474DD"/>
<circle cx="697.305" cy="83.7745" r="8.02421" fill="#2474DD"/>
<circle cx="697.305" cy="49.2707" r="8.02421" fill="#2474DD"/>
<circle cx="665.208" cy="59.7019" r="8.02421" fill="#2474DD"/>
<circle cx="729.403" cy="46.061" r="8.02421" fill="#E7E7E7"/>
<circle cx="721.376" cy="70.1338" r="8.02421" fill="#E7E7E7"/>
<circle cx="724.591" cy="96.6133" r="8.02421" fill="#E7E7E7"/>
<circle cx="738.227" cy="120.686" r="8.02421" fill="#E7E7E7"/>
<circle cx="721.376" cy="140.746" r="8.02421" fill="#E7E7E7"/>
<circle cx="689.282" cy="144.758" r="8.02421" fill="#E7E7E7"/>
<circle cx="679.653" cy="168.831" r="8.02421" fill="#E7E7E7"/>
<circle cx="708.54" cy="164.819" r="8.02421" fill="#E7E7E7"/>
<circle cx="732.61" cy="184.88" r="8.02421" fill="#E7E7E7"/>
<circle cx="709.341" cy="205.743" r="8.02421" fill="#E7E7E7"/>
<circle cx="686.075" cy="192.904" r="8.02421" fill="#E7E7E7"/>
<circle cx="633.11" cy="148.77" r="8.02421" fill="#2474DD"/>
<circle cx="629.098" cy="128.71" r="8.02421" fill="#2474DD"/>
<circle cx="625.087" cy="108.65" r="8.02421" fill="#E7E7E7"/>
<circle cx="641.134" cy="92.6015" r="8.02421" fill="#E7E7E7"/>
<circle cx="633.11" cy="59.7019" r="8.02421" fill="#1B3072"/>
<circle cx="645.145" cy="38.0367" r="8.02421" fill="#1B3072"/>
<circle cx="609.04" cy="46.061" r="8.02421" fill="#2474DD"/>
<circle cx="577.747" cy="38.0367" r="8.02421" fill="#E7E7E7"/>
<circle cx="553.673" cy="46.061" r="8.02421" fill="#E7E7E7"/>
<circle cx="552.872" cy="67.7264" r="8.02421" fill="#E7E7E7"/>
<circle cx="530.399" cy="41.2461" r="8.02421" fill="#E7E7E7"/>
<circle cx="561.696" cy="115.069" r="8.02421" fill="#E7E7E7"/>
<circle cx="561.696" cy="136.735" r="8.02421" fill="#E7E7E7"/>
<circle cx="544.845" cy="152.783" r="8.02421" fill="#E7E7E7"/>
<circle cx="569.72" cy="208.952" r="8.02421" fill="#FFB78A"/>
<circle cx="625.087" cy="208.952" r="8.02421" fill="#FFB78A"/>
<circle cx="661.196" cy="200.126" r="8.02421" fill="#67BEFF"/>
<circle cx="485.466" cy="205.743" r="8.02421" fill="#E7E7E7"/>
<circle cx="912.352" cy="38.0373" r="8.02421" fill="#FFB78A"/>
<circle cx="884.27" cy="41.2467" r="8.02421" fill="#DD9966"/>
<circle cx="896.305" cy="59.7026" r="8.02421" fill="#DD9966"/>
<circle cx="908.341" cy="81.3678" r="8.02421" fill="#FFB78A"/>
<circle cx="884.27" cy="89.3921" r="8.02421" fill="#D96A3D"/>
<circle cx="860.196" cy="85.3799" r="8.02421" fill="#D96A3D"/>
<circle cx="860.196" cy="57.2956" r="8.02421" fill="#D96A3D"/>
<circle cx="860.196" cy="120.686" r="8.02421" fill="#D96A3D"/>
<circle cx="873.032" cy="151.981" r="8.02421" fill="#D96A3D"/>
<circle cx="868.22" cy="200.928" r="8.02421" fill="#D96A3D"/>
<circle cx="900.317" cy="178.46" r="8.02421" fill="#D96A3D"/>
<circle cx="896.305" cy="156.795" r="8.02421" fill="#D96A3D"/>
<circle cx="904.329" cy="132.723" r="8.02421" fill="#D96A3D"/>
<circle cx="900.317" cy="108.65" r="8.02421" fill="#DD9966"/>
<circle cx="940.438" cy="89.3921" r="8.02421" fill="#FFB78A"/>
<circle cx="967.72" cy="93.4041" r="8.02421" fill="#FFB78A"/>
<circle cx="945.251" cy="112.662" r="8.02421" fill="#FFB78A"/>
<circle cx="956.485" cy="132.723" r="8.02421" fill="#FFB78A"/>
<circle cx="945.251" cy="156.795" r="8.02421" fill="#DD9966"/>
<circle cx="922.786" cy="168.029" r="8.02421" fill="#D96A3D"/>
<circle cx="940.438" cy="184.078" r="8.02421" fill="#D96A3D"/>
<circle cx="945.251" cy="208.953" r="8.02421" fill="#D96A3D"/>
<circle cx="972.536" cy="184.078" r="8.02421" fill="#DD9966"/>
<circle cx="1008.64" cy="184.078" r="8.02421" fill="#FFB78A"/>
<circle cx="1035.93" cy="184.078" r="8.02421" fill="#FFB78A"/>
<circle cx="1098.51" cy="178.46" r="8.02421" fill="#67BEFF"/>
<circle cx="1098.51" cy="156.795" r="8.02421" fill="#67BEFF"/>
<circle cx="1109.75" cy="140.747" r="8.02421" fill="#67BEFF"/>
<circle cx="1126.6" cy="120.686" r="8.02421" fill="#67BEFF"/>
<circle cx="1098.51" cy="112.662" r="8.02421" fill="#2474DD"/>
<circle cx="1050.37" cy="97.4163" r="8.02421" fill="#67BEFF"/>
<circle cx="1058.4" cy="76.5534" r="8.02421" fill="#67BEFF"/>
<circle cx="1038.33" cy="62.1098" r="8.02421" fill="#2474DD"/>
<circle cx="1018.27" cy="69.3317" r="8.02421" fill="#67BEFF"/>
<circle cx="1014.26" cy="87.787" r="8.02421" fill="#67BEFF"/>
<circle cx="1033.52" cy="115.07" r="8.02421" fill="#67BEFF"/>
<circle cx="1054.38" cy="136.735" r="8.02421" fill="#67BEFF"/>
<circle cx="1007.84" cy="149.574" r="8.02421" fill="#FFB78A"/>
<circle cx="1146.66" cy="112.662" r="8.02421" fill="#2474DD"/>
<circle cx="1118.58" cy="89.3921" r="8.02421" fill="#2474DD"/>
<circle cx="1142.65" cy="83.7752" r="8.02421" fill="#2474DD"/>
<circle cx="1142.65" cy="49.271" r="8.02421" fill="#1B3072"/>
<circle cx="1110.55" cy="59.7026" r="8.02421" fill="#1B3072"/>
<circle cx="1174.74" cy="46.0613" r="8.02421" fill="#1B3072"/>
<circle cx="1166.72" cy="70.1339" r="8.02421" fill="#1B3072"/>
<circle cx="1169.93" cy="96.6138" r="8.02421" fill="#1B3072"/>
<circle cx="1183.57" cy="120.686" r="8.02421" fill="#1B3072"/>
<circle cx="1166.72" cy="140.747" r="8.02421" fill="#1B3072"/>
<circle cx="1134.63" cy="144.759" r="8.02421" fill="#67BEFF"/>
<circle cx="1124.99" cy="168.832" r="8.02421" fill="#67BEFF"/>
<circle cx="1153.88" cy="164.82" r="8.02421" fill="#2474DD"/>
<circle cx="1177.95" cy="184.88" r="8.02421" fill="#67BEFF"/>
<circle cx="1154.68" cy="205.743" r="8.02421" fill="#67BEFF"/>
<circle cx="1131.41" cy="192.904" r="8.02421" fill="#67BEFF"/>
<circle cx="1078.45" cy="148.771" r="8.02421" fill="#67BEFF"/>
<circle cx="1074.44" cy="128.71" r="8.02421" fill="#67BEFF"/>
<circle cx="1070.43" cy="108.65" r="8.02421" fill="#67BEFF"/>
<circle cx="1086.48" cy="92.6018" r="8.02421" fill="#2474DD"/>
<circle cx="1078.45" cy="59.7026" r="8.02421" fill="#1B3072"/>
<circle cx="1090.49" cy="38.0373" r="8.02421" fill="#1B3072"/>
<circle cx="1054.38" cy="46.0613" r="8.02421" fill="#2474DD"/>
<circle cx="1023.09" cy="38.0373" r="8.02421" fill="#2474DD"/>
<circle cx="999.013" cy="46.0613" r="8.02421" fill="#67BEFF"/>
<circle cx="998.216" cy="67.7266" r="8.02421" fill="#67BEFF"/>
<circle cx="975.747" cy="41.2467" r="8.02421" fill="#67BEFF"/>
<path d="M992.599 115.07C992.599 119.501 989.007 123.094 984.575 123.094C980.143 123.094 976.551 119.501 976.551 115.07C976.551 110.638 980.143 107.045 984.575 107.045C989.007 107.045 992.599 110.638 992.599 115.07Z" fill="#FFB78A"/>
<circle cx="984.575" cy="136.735" r="8.02421" fill="#FFB78A"/>
<circle cx="967.72" cy="152.783" r="8.02421" fill="#DD9966"/>
<circle cx="992.595" cy="208.953" r="8.02421" fill="#D96A3D"/>
<circle cx="1047.96" cy="208.953" r="8.02421" fill="#FFB78A"/>
<circle cx="1106.54" cy="200.126" r="8.02421" fill="#67BEFF"/>
<circle cx="908.341" cy="205.743" r="8.02421" fill="#D96A3D"/>
<path d="M931.609 18.7791L1088.88 222.995" stroke="#E7E7E7" stroke-width="3.93786" stroke-linecap="round"/>
<path d="M394.577 122.079C395.346 121.31 395.346 120.063 394.577 119.294L382.047 106.764C381.278 105.995 380.032 105.995 379.263 106.764C378.494 107.533 378.494 108.78 379.263 109.549L390.401 120.687L379.263 131.825C378.494 132.594 378.494 133.84 379.263 134.609C380.032 135.378 381.278 135.378 382.047 134.609L394.577 122.079ZM337.016 122.656L393.185 122.656L393.185 118.718L337.016 118.718L337.016 122.656Z" fill="#1B3072"/>
<path d="M817.452 122.079C818.221 121.31 818.221 120.063 817.452 119.294L804.922 106.764C804.153 105.995 802.907 105.995 802.138 106.764C801.369 107.533 801.369 108.78 802.138 109.549L813.276 120.687L802.138 131.825C801.369 132.594 801.369 133.84 802.138 134.609C802.907 135.378 804.153 135.378 804.922 134.609L817.452 122.079ZM759.891 122.656L816.06 122.656L816.06 118.718L759.891 118.718L759.891 122.656Z" fill="#1B3072"/>
</svg>
